<?xml version="1.0" encoding="UTF-8" standalone="no"?>
<!-- Generator: Adobe Illustrator 27.8.1, SVG Export Plug-In . SVG Version: 6.00 Build 0)  -->

<svg
   version="1.1"
   id="Calque_1"
   x="0px"
   y="0px"
   viewBox="0 0 597.72999 212.71238"
   xml:space="preserve"
   sodipodi:docname="Logo Typo.svg"
   width="597.72998"
   height="212.71239"
   inkscape:version="1.1.2 (0a00cf5339, 2022-02-04)"
   xmlns:inkscape="http://www.inkscape.org/namespaces/inkscape"
   xmlns:sodipodi="http://sodipodi.sourceforge.net/DTD/sodipodi-0.dtd"
   xmlns="http://www.w3.org/2000/svg"
   xmlns:svg="http://www.w3.org/2000/svg"><defs
   id="defs69" /><sodipodi:namedview
   id="namedview67"
   pagecolor="#ffffff"
   bordercolor="#666666"
   borderopacity="1.0"
   inkscape:pageshadow="2"
   inkscape:pageopacity="0.0"
   inkscape:pagecheckerboard="0"
   showgrid="false"
   inkscape:zoom="1.4180107"
   inkscape:cx="273.27015"
   inkscape:cy="127.99621"
   inkscape:window-width="1850"
   inkscape:window-height="1016"
   inkscape:window-x="70"
   inkscape:window-y="27"
   inkscape:window-maximized="1"
   inkscape:current-layer="g64" />
<style
   type="text/css"
   id="style2">
	.st0{fill:#FFFFFF;}
</style>
<g
   id="g64"
   transform="translate(-147.30001,-169.75778)">
	
	<path
   d="m 206.1,260.77 c -2.96,-2.64 -5.92,-5.29 -9.01,-8.05 -3.64,2.99 -6.21,6.77 -9.9,10.23 -0.04,-3.26 -0.12,-6.02 -0.08,-8.78 0.02,-1.35 0.26,-2.69 0.43,-4.03 0.22,-1.8 -0.29,-3.46 -0.84,-5.14 -0.74,-2.27 -1.47,-4.55 -1.95,-6.88 -0.58,-2.85 -1.6,-3.96 -4.46,-4.25 -0.16,-0.02 -0.32,-0.01 -0.48,-0.01 -5.51,-0.1 -11.02,-0.27 -16.52,-0.26 -4.16,0.01 -7.9,-1.04 -11.09,-3.76 -1.34,-1.14 -2.8,-2.19 -2.56,-4.31 0.04,-0.35 -0.41,-0.81 -0.71,-1.15 -2.2,-2.38 -2.24,-3.18 0.29,-5.23 2.29,-1.86 4.72,-3.55 7.17,-5.2 3.38,-2.27 6.84,-4.44 10.27,-6.64 4.19,-2.69 8.85,-4.02 13.72,-4.7 0.78,-0.11 1.65,-0.19 2.39,0.01 1.8,0.5 3.16,-0.19 4.68,-1.06 5.84,-3.34 10.03,-8.34 14.16,-13.46 2.81,-3.48 5.74,-6.86 8.66,-10.25 2.19,-2.55 4.99,-4.34 8.1,-5.41 3.31,-1.14 6.79,-1.78 10.19,-2.62 0.31,-0.08 0.64,-0.06 0.96,-0.06 1.95,0.01 2.43,0.79 1.48,2.55 -0.53,0.98 -1.22,1.88 -1.81,2.82 -0.41,0.65 -0.79,1.33 -1.33,2.23 2.18,0.52 4.11,0.92 6.01,1.46 1.61,0.45 3.24,0.91 4.75,1.62 1.73,0.81 2.27,2.35 1.32,3.72 -3.42,4.94 -6.92,9.92 -12.5,12.64 -3.14,1.53 -6.48,2.83 -9.88,3.58 -8.17,1.82 -15.92,4.73 -23.46,8.27 -0.84,0.39 -1.63,0.88 -2.68,1.45 0.71,0.99 1.15,1.85 1.81,2.49 3.38,3.24 7.39,4.7 12.06,3.83 0.97,-0.18 1.95,-0.71 2.76,-1.31 7.31,-5.34 15.44,-8.74 24.4,-9.93 11.34,-1.5 22.11,0.43 32.2,5.9 11.14,6.03 18.96,15.06 23.74,26.68 1.39,3.37 2.09,7.03 2.98,10.59 0.17,0.66 -0.01,1.71 -0.45,2.17 -2.42,2.53 -4.97,4.92 -7.64,7.53 -3.39,-3.13 -6.57,-6 -9.51,-9.15 -1.33,-1.42 -2.29,-3.01 -3.2,-4.72 -6.03,-11.35 -15.17,-18.32 -28.21,-19.66 -14.93,-1.53 -30,7.98 -34.43,23.29 -0.9,3.09 -1.38,6.23 -1.3,9.46 0.02,1.1 0,2.2 0,3.3 -0.18,0.05 -0.35,0.13 -0.53,0.2 z m -33.86,-42.01 c 2.81,2.9 7.11,2.24 8.89,-1.35 0.48,-0.95 0.37,-1.57 -0.68,-2.09 -3.25,-1.63 -6.7,-0.22 -8.21,3.44 z"
   id="path6" />
	<path
   d="m 215.12,320.65 c -1.74,-2.32 -3.31,-4.41 -5.01,-6.67 3.1,-3.16 6.7,-5.22 11.14,-6.52 -0.63,-0.48 -0.99,-0.87 -1.44,-1.06 -11.44,-4.85 -19.54,-13.37 -25.94,-23.71 -2.41,-3.9 -3.86,-8.24 -5.21,-12.6 -0.28,-0.89 -0.29,-1.7 0.36,-2.46 2.6,-3.02 5.18,-6.06 7.94,-9.29 2.06,1.9 3.93,3.6 5.77,5.34 1.11,1.04 2.13,2.17 3.25,3.2 1.84,1.7 3.27,3.65 4.5,5.85 5.63,10.05 14.23,15.62 25.69,17.06 12.43,1.56 27.8,-5.26 33.86,-20.05 1.69,-4.13 2.73,-8.33 2.49,-12.82 -0.04,-0.71 -0.01,-1.42 -0.01,-2.38 1.7,0.64 2.48,2 3.57,2.94 1.15,0.99 2.2,2.1 3.31,3.13 1.11,1.02 2.24,2.01 3.56,3.2 2.88,-2.55 5.65,-5.01 8.77,-7.78 0,2.74 0,5.01 0,7.12 0.38,0.31 0.54,0.52 0.75,0.61 7.28,3.12 12.19,8.91 16.68,15.09 2.2,3.03 4.11,6.29 6.02,9.52 0.67,1.14 1.05,2.49 1.35,3.79 0.23,1 0.15,1.97 1.18,2.7 0.41,0.29 0.57,1.35 0.42,1.96 -0.84,3.41 -1.51,6.91 -2.82,10.15 -1.12,2.76 -3.83,3.95 -6.75,4.33 -4.07,0.54 -8.14,0.27 -12.19,-0.17 -1.19,-0.13 -2.37,-0.44 -3.55,-0.47 -4.48,-0.1 -7.89,-2.43 -10.94,-5.35 -2.42,-2.32 -4.64,-4.85 -6.95,-7.28 -0.31,-0.32 -0.67,-0.59 -1.43,-1.23 0.36,1.24 0.65,1.96 0.77,2.71 0.19,1.23 -0.31,2.11 -1.42,2.01 -3.85,-0.34 -6.93,1.7 -10.19,3.12 -4.41,1.93 -8.85,3.69 -13.58,4.62 -0.3,0.06 -0.57,0.25 -1.27,0.57 4.33,2 8.44,3.6 12.69,4.87 4.34,1.29 8.76,1.68 13.6,0.52 -0.49,1.24 -0.8,2.05 -1.13,2.84 -1.24,2.95 -2.53,5.88 -3.71,8.85 -0.44,1.12 -1.12,1.62 -2.29,1.73 -3.14,0.29 -6.28,0.2 -9.27,-0.76 -3.64,-1.17 -7.21,-2.61 -10.76,-4.04 -3.85,-1.55 -7.62,-3.33 -11.49,-4.84 -6.87,-2.7 -13.68,-3.34 -20.32,1.65 z m 90.32,-21.24 c -2.21,-3.35 -4.73,-2.59 -6.73,0.63 2.24,2.28 4.46,2.07 6.73,-0.63 z"
   id="path8" />
	<path
   d="m 373.42,295.59 c 0.92,0.51 1.59,0.92 2.28,1.27 8.71,4.39 7.91,17.67 0.25,21.9 -2.56,1.41 -5.28,2.31 -8.14,2.7 -2.21,0.3 -4.45,0.53 -6.69,0.55 -7.36,0.07 -14.71,0.04 -22.07,0.03 -0.55,0 -1.1,-0.07 -1.83,-0.13 0,-2.72 0,-5.38 0,-8.28 1.93,0 3.74,0 5.48,0 0.59,-1.92 0.8,-27.73 0.31,-32.78 -1.83,0 -3.7,0 -5.77,0 0,-2.95 0,-5.61 0,-8.34 0.39,-0.09 0.69,-0.22 0.99,-0.21 8.95,0.07 17.91,0.04 26.86,0.3 2.5,0.07 5.07,0.78 7.45,1.64 4.55,1.64 7.1,5.04 7.44,9.93 0.33,4.74 -1.41,8.43 -5.67,10.77 -0.2,0.12 -0.38,0.28 -0.89,0.65 z m -17.3,4.93 c 0,2.36 -0.02,4.42 0,6.48 0.02,2.12 -0.11,4.25 0.12,6.49 2.15,0 4.05,0.07 5.94,-0.03 1.01,-0.05 2.06,-0.28 3.01,-0.66 2.51,-1.01 3.57,-3.01 3.43,-6.19 -0.12,-2.99 -1.36,-4.78 -3.98,-5.58 -2.68,-0.82 -5.44,-0.77 -8.52,-0.51 z m 0.13,-8.76 c 2.65,0.26 5.17,0.41 7.64,-0.4 2.2,-0.72 3.04,-2.46 3.21,-4.6 0.17,-2.04 -0.27,-3.91 -2.26,-4.89 -2.73,-1.34 -5.64,-1.29 -8.59,-0.97 0,3.74 0,7.23 0,10.86 z"
   id="path10" />
	<path
   d="m 518.82,227.58 c 0.15,0.77 0.3,1.52 0.49,2.51 3.61,-1.86 7.17,-3.14 11.1,-3.13 4.07,0.01 7.47,1.47 10.25,4.58 0.92,-0.52 1.74,-0.98 2.56,-1.45 4.15,-2.34 8.58,-3.42 13.35,-3.06 5.57,0.42 8.47,2.98 9.35,8.49 0.33,2.04 0.41,4.13 0.44,6.21 0.07,3.98 0.02,7.97 0.02,12.21 1.96,0.12 3.74,0.22 5.62,0.34 0,2.61 0,5.05 0,7.66 -5.52,0 -10.91,0 -16.57,0 -0.04,-0.86 -0.11,-1.7 -0.11,-2.55 -0.01,-5.6 0.01,-11.2 -0.01,-16.8 -0.02,-5.22 -2.16,-6.93 -7.27,-5.83 -0.93,0.2 -1.86,0.49 -2.76,0.82 -0.82,0.3 -1.6,0.7 -2.48,1.09 0,5.08 0,10.08 0,15.41 1.81,0 3.52,0 5.36,0 0,2.77 0,5.22 0,7.85 -5.47,0 -10.87,0 -16.52,0 -0.04,-0.85 -0.11,-1.71 -0.11,-2.56 -0.01,-5.36 0,-10.72 -0.01,-16.08 0,-1.04 -0.02,-2.09 -0.17,-3.11 -0.37,-2.44 -1.78,-3.67 -4.24,-3.69 -2.54,-0.03 -4.88,0.78 -7.13,1.86 -0.41,0.2 -0.88,0.81 -0.89,1.24 -0.06,4.7 -0.04,9.41 -0.04,14.37 1.9,0.1 3.61,0.19 5.47,0.29 0,2.55 0,4.99 0,7.44 -1.62,0.5 -18.34,0.67 -22.08,0.2 0,-2.48 0,-4.98 0,-7.72 1.76,0 3.42,0 5.4,0 0.16,-6.25 0.05,-12.26 0.08,-18.51 -1.88,0 -3.53,0 -5.42,0 -0.41,-2.77 -0.22,-5.35 -0.15,-8.08 5.58,0 10.97,0 16.47,0 z"
   id="path12" />
	<path
   d="m 587.94,321.89 c 0,-1.67 0,-3.1 0,-4.53 0,-5.04 0.03,-10.08 -0.02,-15.12 -0.05,-4.89 -2.07,-6.56 -6.83,-5.56 -1.85,0.39 -3.63,1.15 -5.51,1.75 0,5.21 0,10.22 0,15.47 1.76,0.08 3.47,0.16 5.35,0.24 0,2.64 0,5.14 0,7.78 -7.37,0 -14.62,0 -22.19,0 -0.13,-2.53 -0.07,-5.04 -0.03,-7.84 1.88,0 3.6,0 5.47,0 0,-6.25 0,-12.21 0,-18.43 -1.75,-0.09 -3.46,-0.18 -5.34,-0.27 0,-2.62 0,-5.13 0,-7.88 5.43,-0.3 10.82,-0.05 16.33,-0.15 0.17,0.93 0.31,1.68 0.48,2.59 7.43,-3.49 14.68,-5.16 21.45,1.47 0.72,-0.4 1.47,-0.8 2.22,-1.24 4.28,-2.48 8.86,-3.58 13.8,-3.18 5.25,0.42 8.04,2.76 9.07,7.95 0.4,2.02 0.48,4.13 0.53,6.2 0.08,3.44 0.02,6.88 0.03,10.32 0,0.78 0,1.55 0,2.62 2.03,0 3.76,0 5.6,0 0,2.74 0,5.18 0,7.81 -5.5,0 -10.9,0 -16.57,0 -0.04,-0.83 -0.12,-1.68 -0.12,-2.53 -0.01,-4.96 -0.01,-9.92 -0.01,-14.88 0,-0.72 0.01,-1.44 0,-2.16 -0.07,-5 -2.02,-6.65 -6.97,-5.65 -1.86,0.37 -3.63,1.14 -5.52,1.75 0,5.22 0,10.22 0,15.48 1.73,0.08 3.45,0.17 5.46,0.27 0.13,2.58 0.15,5.08 -0.05,7.74 -5.5,-0.02 -10.89,-0.02 -16.63,-0.02 z"
   id="path14" />
	<path
   d="m 324.81,340.48 c -4.85,0 -9.13,0 -13.65,0 0,2.91 0,5.68 0,8.69 -2.81,0.34 -5.4,0.15 -7.94,0.13 -0.52,-1.86 -0.64,-14.03 -0.16,-17.36 12.54,-0.05 25.12,-0.02 38.04,-0.03 0,2.52 0.09,4.82 -0.05,7.1 -0.05,0.71 -0.68,1.41 -1.14,2.05 -7.03,9.82 -14.08,19.63 -21.11,29.45 -0.51,0.71 -0.98,1.43 -1.49,2.18 1.63,0.63 11.94,0.8 15.65,0.28 0.56,-2.91 -0.04,-5.95 0.37,-9.1 2.72,0 5.37,0 8.14,0 0,5.92 0,11.71 0,17.63 -13.32,0 -26.49,0 -39.99,0 -0.15,-2.69 -0.18,-5.38 0.03,-8.05 0.06,-0.71 0.72,-1.4 1.18,-2.04 6.8,-9.5 13.61,-18.98 20.41,-28.47 0.49,-0.68 0.97,-1.39 1.71,-2.46 z"
   id="path16" />
	<path
   d="m 702.84,321.87 c 0,-2.66 0,-5.1 0,-7.81 1.77,0 3.42,0 5.24,0 0,-11.33 0,-22.4 0,-33.68 -1.71,-0.08 -3.35,-0.16 -5.29,-0.25 -0.15,-2.57 -0.12,-5.06 0,-7.71 5.51,0 10.83,0 16.49,0 0.14,5.15 0.05,10.24 0.06,15.32 0.02,5.09 0,10.19 0,15.39 1.89,-0.8 9.31,-6.81 11.13,-9.02 -2.26,0 -4.27,0 -6.45,0 0,-2.35 0,-4.37 0,-6.75 6.89,-0.01 13.71,-0.01 20.67,0 0,2.44 0,4.56 0,6.61 -0.18,0.12 -0.25,0.2 -0.31,0.2 -2.65,-0.24 -4.44,1.29 -6.25,2.92 -2.18,1.98 -4.48,3.84 -6.89,5.89 0.56,0.74 1,1.37 1.49,1.95 2.11,2.51 4.29,4.96 6.32,7.54 0.95,1.21 1.99,1.72 3.48,1.56 0.77,-0.08 1.56,-0.01 2.5,-0.01 0,2.77 0,5.28 0,8.01 -3.48,0 -6.83,0.07 -10.17,-0.06 -0.62,-0.03 -1.33,-0.78 -1.8,-1.35 -3.9,-4.77 -7.75,-9.57 -11.62,-14.36 -0.49,-0.6 -1.02,-1.18 -1.58,-1.83 -0.64,1.78 -0.72,7.24 -0.17,9.87 1.12,0.07 2.28,0.15 3.68,0.24 0.05,1.26 0.11,2.43 0.13,3.6 0.02,1.19 0,2.38 0,3.74 -6.95,-0.01 -13.7,-0.01 -20.66,-0.01 z"
   id="path18" />
	<path
   d="m 550.54,314.03 c 1.83,0 3.32,0 4.99,0 0,2.73 0,5.23 0,7.87 -5.27,0 -10.44,0 -15.93,0 -0.04,-0.8 -0.13,-1.63 -0.13,-2.47 -0.01,-5.84 -0.01,-11.67 -0.01,-17.51 0,-0.64 0.01,-1.28 -0.01,-1.92 -0.08,-3.87 -1.82,-5.14 -5.59,-4.06 -0.61,0.17 -1.19,0.47 -1.79,0.67 -1.5,0.51 -2.03,1.49 -1.99,3.1 0.1,4.07 0.03,8.15 0.04,12.23 0,0.55 0.07,1.1 0.12,1.89 1.51,0.11 2.98,0.22 4.6,0.34 0,2.6 0,5.11 0,7.74 -7.06,0 -13.98,0 -21.2,0 -0.25,-2.52 -0.1,-5.02 -0.09,-7.85 1.86,0 3.57,0 5.41,0 0,-11.39 0,-22.46 0,-33.78 -1.78,0 -3.43,0 -5.26,0 0,-2.74 0,-5.23 0,-7.87 5.42,0 10.74,0 16.39,0 0,5.82 0,11.52 0,17.61 1.11,-0.59 1.79,-0.95 2.46,-1.31 2.66,-1.41 5.42,-2.33 8.49,-2.09 4.75,0.37 7.92,2.99 8.89,7.65 0.39,1.86 0.51,3.8 0.55,5.71 0.08,3.76 0.02,7.51 0.02,11.27 0.04,0.79 0.04,1.58 0.04,2.78 z"
   id="path20" />
	<path
   d="m 444.92,314.05 c 1.91,0 3.48,0 5.21,0 0,2.73 0,5.23 0,7.87 -7.13,0 -14.13,0 -21.32,0 0,-2.56 0,-5.06 0,-7.77 1.63,-0.08 3.19,-0.15 4.92,-0.23 0,-6.07 0,-12.02 0,-18.26 -1.61,-0.1 -3.23,-0.2 -4.97,-0.31 0,-2.62 0,-5.06 0,-7.5 1.64,-0.6 13.14,-0.74 16,-0.17 0.08,0.73 0.17,1.51 0.29,2.61 0.73,-0.38 1.32,-0.67 1.89,-1.01 2.98,-1.74 6.16,-2.62 9.63,-2.27 3.76,0.38 6.51,2.26 7.79,5.83 0.66,1.85 1.05,3.88 1.13,5.84 0.18,4.15 0.09,8.31 0.11,12.47 0,0.86 0,1.72 0,2.74 1.82,0.1 3.38,0.18 5.07,0.26 0,2.61 0,5.05 0,7.49 -1.72,0.51 -11.35,0.67 -16.02,0.25 -0.04,-0.79 -0.12,-1.63 -0.12,-2.47 -0.01,-5.76 -0.01,-11.51 -0.01,-17.27 0,-0.32 0,-0.64 0,-0.96 -0.06,-4.62 -1.85,-5.93 -6.2,-4.48 -0.9,0.3 -1.78,0.74 -2.57,1.27 -0.4,0.26 -0.8,0.87 -0.8,1.32 -0.05,4.76 -0.03,9.55 -0.03,14.75 z"
   id="path22" />
	<path
   d="m 388.33,235.43 c 0,-2.72 0,-5.18 0,-7.97 5.33,-0.05 10.56,-0.06 15.92,0.02 0.15,0.97 0.29,1.8 0.46,2.86 0.72,-0.4 1.34,-0.72 1.94,-1.06 2.4,-1.36 4.94,-2.23 7.74,-2.28 5.59,-0.09 9.29,2.84 10.29,8.35 0.34,1.88 0.43,3.81 0.47,5.73 0.07,3.52 0.02,7.04 0.03,10.56 0,0.71 0.07,1.41 0.11,2.32 1.65,0.11 3.2,0.21 4.93,0.32 0,2.6 0,5.1 0,7.69 -5.38,0 -10.61,0 -16.13,0 0,-1 0,-1.85 0,-2.71 0,-5.84 0.01,-11.68 -0.02,-17.51 0,-1.03 -0.07,-2.09 -0.28,-3.09 -0.37,-1.7 -1.34,-2.43 -3.09,-2.38 -0.87,0.03 -1.75,0.2 -2.59,0.44 -3.24,0.94 -3.62,1.47 -3.62,4.85 0,3.28 -0.01,6.56 0,9.84 0,0.79 0.07,1.57 0.11,2.59 1.73,0.1 3.36,0.19 5.13,0.28 0,2.58 0,5.02 0,7.45 -1.79,0.5 -18.61,0.59 -21.36,0.1 0,-2.41 0,-4.85 0,-7.52 1.58,-0.1 3.14,-0.19 4.66,-0.28 0.57,-1.76 0.69,-15.41 0.16,-18.29 -1.58,-0.13 -3.2,-0.22 -4.86,-0.31 z"
   id="path24" />
	<path
   d="m 304.41,235.58 c -1.87,0 -3.36,0 -5.04,0 0,-2.77 0,-5.36 0,-8.04 5.32,0 10.49,0 16,0 0,0.96 0,1.81 0,2.66 0,5.76 0,11.52 0,17.28 0,0.72 -0.02,1.44 0.02,2.16 0.15,3.12 1.35,4.17 4.43,3.78 0.86,-0.11 1.7,-0.41 2.52,-0.72 1.96,-0.74 3.03,-1.89 2.88,-4.3 -0.25,-4.14 -0.07,-8.3 -0.07,-12.7 -1.74,0 -3.3,0 -5.13,0 -0.33,-2.81 -0.2,-5.38 -0.09,-8.12 5.41,0 10.64,0 16.17,0 0,8.76 0,17.43 0,26.36 1.98,0.12 3.69,0.22 5.56,0.33 0,2.53 0,4.97 0,7.42 -1.6,0.51 -12.22,0.68 -16.24,0.24 -0.17,-0.72 -0.34,-1.47 -0.56,-2.41 -0.81,0.42 -1.51,0.77 -2.21,1.13 -3.46,1.74 -7.08,2.49 -10.92,1.57 -3.9,-0.94 -6.22,-3.47 -6.98,-7.37 -0.26,-1.32 -0.31,-2.7 -0.32,-4.06 -0.04,-4.16 -0.01,-8.32 -0.02,-12.48 0,-0.79 0,-1.58 0,-2.73 z"
   id="path26" />
	<path
   d="m 493.9,254.12 c 1.9,0 3.61,0 5.45,0 0,2.75 0,5.19 0,7.8 -5.49,0 -10.88,0 -16.38,0 -0.11,-0.71 -0.21,-1.4 -0.34,-2.2 -0.3,0.04 -0.61,0.01 -0.88,0.12 -1.92,0.77 -3.77,1.84 -5.76,2.28 -1.9,0.42 -3.99,0.5 -5.93,0.22 -4.57,-0.67 -7.59,-4.02 -7.84,-8.66 -0.22,-4.07 -0.12,-8.15 -0.14,-12.23 -0.01,-1.83 0,-3.65 0,-5.75 -1.72,-0.08 -3.27,-0.15 -5.07,-0.23 -0.29,-2.58 -0.1,-5.1 -0.12,-7.97 5.32,-0.17 10.53,-0.05 15.96,-0.09 0.06,1.09 0.15,1.94 0.15,2.79 0.01,5.76 0.01,11.51 0.01,17.27 0,0.8 -0.01,1.6 0.05,2.4 0.21,2.92 1.27,3.87 4.14,3.57 1.01,-0.11 2,-0.5 2.97,-0.84 1.97,-0.68 2.78,-1.95 2.67,-4.17 -0.2,-4.14 -0.06,-8.29 -0.06,-12.7 -1.77,-0.09 -3.39,-0.18 -5.15,-0.27 0,-2.66 0,-5.17 0,-7.86 5.31,0 10.54,0 16.07,0 0.28,8.73 -0.05,17.48 0.2,26.52 z"
   id="path28" />
	<path
   d="m 652.54,301.91 c 0.16,-0.36 0.21,-0.43 0.22,-0.51 0.25,-2.64 0.23,-5.27 -2.4,-6.79 -2.7,-1.56 -5.69,-1.54 -8.2,0.18 -1.95,1.33 -3.7,1.48 -5.81,0.93 -1.61,-0.42 -3.27,-0.63 -5.07,-0.97 0.78,-2.46 2.36,-4.08 4.29,-5.12 2.08,-1.12 4.36,-2.02 6.66,-2.55 3.36,-0.78 6.82,-0.7 10.25,-0.19 7.23,1.07 10.94,4.99 11.3,12.31 0.2,3.99 0.08,7.99 0.1,11.99 0,0.86 0,1.71 0,2.81 1.96,0 3.6,0 5.53,0 0.16,2.74 0.18,5.23 -0.04,7.89 -5.45,0 -10.77,0 -16.27,0 -0.14,-0.62 -0.29,-1.28 -0.47,-2.1 -0.35,0.11 -0.73,0.14 -1.03,0.32 -2.98,1.74 -6.14,2.68 -9.62,2.35 -0.79,-0.07 -1.59,-0.18 -2.37,-0.35 -4.99,-1.07 -8.08,-4.32 -8.63,-9.02 -0.6,-5.15 1.69,-9.41 6.39,-11.48 4.25,-1.88 8.65,-2.14 13.08,-0.52 0.67,0.25 1.32,0.51 2.09,0.82 z m 0.56,8.59 c -0.34,-0.65 -0.53,-1.54 -1.06,-1.91 -1.95,-1.32 -4.13,-2.07 -6.54,-1.85 -2.88,0.27 -4.32,2.17 -3.96,5.13 0.34,2.76 2.18,4.09 5.07,3.68 1.97,-0.28 3.54,-1.35 5.09,-2.49 0.85,-0.63 1.32,-1.36 1.4,-2.56 z"
   id="path30" />
	<path
   d="m 378.74,254.11 c 1.99,0 3.64,0 5.47,0 0,2.68 0,5.11 0,7.83 -5.34,0.35 -10.72,0.08 -16.25,0.15 -0.16,-0.79 -0.29,-1.46 -0.45,-2.28 -0.45,0.17 -0.9,0.28 -1.28,0.51 -3.77,2.19 -7.76,2.83 -12.01,1.81 -5.09,-1.22 -7.95,-4.46 -8.4,-9.47 -0.44,-4.86 1.9,-8.99 6.46,-10.98 4.34,-1.9 8.81,-2.13 13.3,-0.42 0.58,0.22 1.18,0.41 1.78,0.61 1.58,-6.4 -2.82,-8.98 -7.97,-7.98 -1.21,0.24 -2.39,0.9 -3.43,1.61 -0.86,0.59 -1.62,0.87 -2.65,0.65 -2.32,-0.48 -4.67,-0.88 -7.26,-1.36 0.97,-2.31 2.41,-3.88 4.24,-5 1.48,-0.91 3.1,-1.73 4.76,-2.19 4.78,-1.3 9.63,-1.36 14.47,-0.22 4.96,1.17 7.92,4.32 8.78,9.32 0.32,1.88 0.4,3.81 0.43,5.72 0.06,3.75 0.01,7.5 0.01,11.69 z m -10.68,-3.25 c -0.44,-0.89 -0.58,-1.83 -1.12,-2.18 -2.26,-1.45 -4.71,-2.33 -7.48,-1.69 -1.24,0.28 -2.26,0.93 -2.72,2.12 -0.7,1.8 -0.68,3.66 0.56,5.22 1.17,1.47 2.93,1.78 4.57,1.2 1.69,-0.6 3.28,-1.57 4.79,-2.57 0.64,-0.41 0.92,-1.33 1.4,-2.1 z"
   id="path32" />
	<path
   d="m 347.87,364.41 c -0.04,-10.38 7.75,-18.2 18.18,-18.23 10.35,-0.03 18.09,7.6 18.2,17.94 0.11,10.3 -7.8,18.31 -18.11,18.35 -10.58,0.04 -18.23,-7.52 -18.27,-18.06 z m 25.29,-0.13 c -0.26,-2.33 -0.56,-4.54 -1.76,-6.52 -2.53,-4.17 -8.75,-4.19 -10.83,0.13 -1.96,4.07 -2.02,8.37 -0.03,12.5 1.14,2.37 3.16,3.57 5.83,3.44 2.67,-0.13 4.57,-1.55 5.46,-4 0.66,-1.77 0.91,-3.69 1.33,-5.55 z"
   id="path34" />
	<path
   d="m 425.84,364.2 c 0.04,10.36 -7.82,18.26 -18.17,18.27 -10.54,0.01 -18.2,-7.62 -18.22,-18.14 -0.02,-10.33 7.89,-18.18 18.29,-18.15 10.39,0.02 18.06,7.67 18.1,18.02 z m -11.23,0.56 c -0.22,-3 -0.4,-5.31 -1.78,-7.32 -2.75,-4.01 -8.88,-3.65 -10.83,0.77 -1.67,3.8 -1.77,7.8 -0.11,11.67 1.09,2.56 3.1,4.06 6,3.96 2.9,-0.1 4.82,-1.7 5.72,-4.34 0.59,-1.72 0.76,-3.58 1,-4.74 z"
   id="path36" />
	<path
   d="m 424.98,307.02 c -8.68,0 -17.11,0 -25.51,0 -0.23,5.42 5.02,10.31 11.41,8.07 1.46,-0.51 2.79,-1.53 4.04,-2.5 0.84,-0.65 1.53,-0.96 2.58,-0.57 2.23,0.81 4.5,1.49 7.04,2.31 -1.95,3.04 -4.27,5.21 -7.24,6.49 -6.84,2.95 -13.76,2.93 -20.38,-0.53 -6.63,-3.46 -9.11,-9.41 -8.54,-16.63 0.56,-7.11 4.16,-12.4 10.68,-15.33 6.42,-2.88 12.86,-2.65 18.63,1.66 5.53,4.12 7.1,10.12 7.29,17.03 z m -11.47,-6.22 c -0.07,-4.06 -3.56,-7.14 -7.64,-6.85 -3.83,0.28 -6.41,3.2 -5.96,6.85 4.53,0 9.06,0 13.6,0 z"
   id="path38" />
	<path
   d="m 510.4,312.35 c -2.94,5.62 -6.94,9.38 -13.13,10.1 -2.6,0.3 -5.28,0.36 -7.88,0.1 -8.91,-0.92 -14.5,-6.66 -15.44,-15.58 -1,-9.5 4.76,-17.77 13.77,-19.68 4.05,-0.86 7.95,-0.3 11.67,1.53 0.64,0.32 1.28,0.64 1.93,0.95 0.06,0.03 0.15,0 0.43,0 0.13,-0.7 0.26,-1.43 0.41,-2.28 2.34,0 4.62,0 7.09,0 0,4.62 0,9.12 0,13.77 -2.56,0 -5.01,0 -7.54,0 -0.47,-0.68 -0.94,-1.42 -1.48,-2.11 -2.23,-2.9 -5.79,-4.12 -9.17,-3.17 -3.19,0.9 -5.51,3.81 -5.75,7.49 -0.09,1.49 0.03,3.06 0.4,4.5 1.38,5.36 6.58,7.72 11.47,5.07 1.84,-0.99 3.32,-2.65 5.18,-4.19 0.17,0.06 0.7,0.22 1.21,0.44 2.19,0.98 4.37,1.96 6.83,3.06 z"
   id="path40" />
	<path
   d="m 702.51,287 c 0,3.57 0,6.81 0,10.15 -0.63,0.14 -1.16,0.28 -1.69,0.37 -1.1,0.2 -2.22,0.32 -3.3,0.57 -4,0.9 -6.52,3.38 -7.22,7.4 -0.46,2.65 -0.51,5.37 -0.78,8.41 2.45,0 4.56,0 6.87,0 0.39,2.8 0.21,5.3 0.15,7.98 -8.03,0 -15.9,0 -24.1,0 -0.18,-2.48 -0.1,-4.99 -0.03,-7.82 2.09,0 4.03,0 6.13,0 0,-6.27 0,-12.22 0,-18.42 -1.85,-0.08 -3.65,-0.16 -5.76,-0.25 -0.25,-2.6 -0.19,-5.17 -0.03,-7.88 5.36,0 10.52,0 16,0 0,2.39 0,4.72 0,7.05 0.15,0.08 0.3,0.16 0.45,0.24 2.8,-5.33 6.99,-8.21 13.31,-7.8 z"
   id="path42" />
	<path
   d="m 446.68,227.42 c 1.36,0 2.3,0 3.24,0 0.95,0 1.89,0 3.12,0 0.15,2.72 0.09,5.24 0.04,8.06 -2.08,0 -4.02,0 -6.08,0 -0.1,0.74 -0.22,1.19 -0.22,1.64 -0.01,4.32 -0.04,8.64 0,12.95 0.03,3.4 1.08,4.22 4.48,3.65 0.47,-0.08 0.92,-0.19 1.68,-0.35 0.32,2.54 0.16,4.95 0.11,7.42 -3.62,1.61 -7.28,2.25 -11.07,1.54 -3.81,-0.71 -6.01,-3.35 -6.17,-7.47 -0.16,-3.99 -0.07,-7.99 -0.09,-11.99 -0.01,-2.31 0,-4.61 0,-7.15 -1.43,-0.09 -2.66,-0.17 -4.18,-0.26 -0.41,-2.58 -0.11,-5.15 -0.18,-7.88 1.48,-0.11 2.72,-0.2 4.23,-0.3 0.05,-1.29 0.11,-2.53 0.13,-3.78 0.01,-0.82 0.06,-1.55 0.84,-2.1 3.14,-2.2 6.26,-4.45 9.39,-6.66 0.11,-0.08 0.3,-0.04 0.72,-0.07 0.01,4.12 0.01,8.22 0.01,12.75 z"
   id="path44" />
	
	
	
	
	
	
	
	
	
</g>
</svg>
